<svg width="24" height="24" viewBox="0 0 24 24" fill="none" xmlns="http://www.w3.org/2000/svg">
<path d="M10.5 1.49979L3 7.15774C2.375 7.63552 2 8.37734 2 9.16945V20.4854C2 21.8684 3.125 23 4.5 23H19.5C20.875 23 22 21.8684 22 20.4854V9.16945C22 8.37734 21.625 7.63552 21 7.15774L13.5 1.49979C12.6125 0.833405 11.3875 0.833405 10.5 1.49979ZM12.625 12.3128C12.625 13.3563 11.7875 14.1987 10.75 14.1987V18.5994C10.75 18.9514 10.475 19.228 10.125 19.228C9.775 19.228 9.5 18.9514 9.5 18.5994V14.1987C8.4625 14.1987 7.625 13.3563 7.625 12.3128V9.16945C7.625 8.8174 7.9 8.54079 8.25 8.54079C8.6 8.54079 8.875 8.8174 8.875 9.16945V12.3128H9.5V9.16945C9.5 8.8174 9.775 8.54079 10.125 8.54079C10.475 8.54079 10.75 8.8174 10.75 9.16945V12.3128H11.375V9.16945C11.375 8.8174 11.65 8.54079 12 8.54079C12.35 8.54079 12.625 8.8174 12.625 9.16945V12.3128ZM15.125 19.228C14.775 19.228 14.5 18.9514 14.5 18.5994V14.8274H13.875C13.525 14.8274 13.25 14.5508 13.25 14.1987V11.0554C13.25 9.94899 13.9625 9.006 14.95 8.6791C15.3375 8.54079 15.75 8.85512 15.75 9.28261V18.5994C15.75 18.9514 15.475 19.228 15.125 19.228Z" fill="#111111"/>
</svg>
